<svg xmlns="http://www.w3.org/2000/svg" xmlns:xlink="http://www.w3.org/1999/xlink">
<path id="Cut" d="M0.002,3.772 C0.152,3.290 0.246,2.782 0.461,2.329 C1.253,0.661 3.105,-0.257 4.965,0.054 C6.765,0.354 8.198,1.830 8.430,3.625 C8.682,5.560 7.700,7.241 5.797,8.109 C5.838,8.144 5.869,8.180 5.908,8.202 C6.915,8.780 7.927,9.353 8.931,9.938 C9.090,10.032 9.190,9.964 9.312,9.894 C12.011,8.352 14.710,6.811 17.410,5.270 C18.710,4.528 20.008,3.784 21.312,3.048 C22.562,2.342 23.982,2.656 24.826,3.814 C25.096,4.186 25.050,4.402 24.641,4.646 C22.242,6.074 19.843,7.500 17.445,8.927 C16.597,9.432 15.750,9.937 14.903,10.442 C14.829,10.485 14.757,10.533 14.660,10.594 C14.743,10.649 14.805,10.694 14.871,10.732 C18.112,12.601 21.354,14.470 24.596,16.339 C25.070,16.613 25.111,16.802 24.793,17.236 C23.975,18.350 22.526,18.652 21.309,17.957 C17.400,15.729 13.490,13.504 9.591,11.259 C9.217,11.043 8.952,11.027 8.581,11.259 C7.753,11.775 6.889,12.236 6.040,12.721 C5.958,12.768 5.878,12.820 5.767,12.890 C6.406,13.156 6.950,13.505 7.380,14.002 C8.451,15.240 8.770,16.652 8.225,18.192 C7.670,19.760 6.519,20.707 4.859,20.957 C2.511,21.310 0.406,19.732 0.054,17.407 C0.045,17.348 0.020,17.291 0.002,17.233 C0.002,16.953 0.002,16.673 0.002,16.392 C0.020,16.334 0.045,16.278 0.054,16.219 C0.375,14.096 2.163,12.588 4.326,12.608 C4.451,12.609 4.591,12.577 4.698,12.518 C5.460,12.095 6.215,11.662 6.972,11.231 C7.381,10.997 7.789,10.761 8.223,10.511 C8.161,10.465 8.130,10.438 8.095,10.417 C6.972,9.776 5.851,9.133 4.723,8.500 C4.601,8.432 4.443,8.402 4.300,8.398 C2.527,8.351 1.212,7.565 0.428,5.982 C0.218,5.559 0.140,5.071 0.002,4.613 C0.002,4.333 0.002,4.053 0.002,3.772 zM4.233,7.561 C6.115,7.556 7.629,6.053 7.634,4.186 C7.638,2.334 6.096,0.816 4.220,0.825 C2.357,0.834 0.843,2.349 0.847,4.199 C0.851,6.049 2.378,7.565 4.233,7.561 zM7.634,16.836 C7.658,15.009 6.153,13.477 4.304,13.446 C2.425,13.415 0.872,14.904 0.848,16.762 C0.823,18.616 2.318,20.150 4.175,20.179 C6.066,20.209 7.608,18.718 7.634,16.836 zM9.945,10.496 C10.054,10.566 10.118,10.611 10.185,10.649 C13.418,12.495 16.652,14.341 19.887,16.184 C20.598,16.589 21.301,17.010 22.033,17.374 C22.649,17.679 23.522,17.443 23.928,16.925 C23.868,16.888 23.810,16.849 23.750,16.814 C21.219,15.354 18.686,13.895 16.155,12.436 C14.622,11.553 13.090,10.668 11.555,9.789 C11.476,9.744 11.340,9.711 11.271,9.747 C10.836,9.976 10.413,10.228 9.945,10.496 zM12.217,9.204 C12.709,9.487 13.156,9.733 13.591,9.998 C13.748,10.094 13.861,10.094 14.021,9.998 C17.255,8.066 20.493,6.140 23.729,4.213 C23.800,4.170 23.867,4.121 23.958,4.061 C23.842,3.969 23.759,3.890 23.665,3.828 C23.019,3.408 22.366,3.401 21.697,3.784 C18.733,5.479 15.766,7.171 12.800,8.865 C12.618,8.968 12.438,9.075 12.217,9.204 z" fill="#757575" />
</svg>
