<svg xml:space="preserve" xmlns="http://www.w3.org/2000/svg" xmlns:xlink="http://www.w3.org/1999/xlink">
<g id="inte">
  <path class="fil0" fill="#757575" d="M673.786 541.183c-149.121,98.106 -236.723,245.047 -256.491,421.535 215.902,-283.2 491.053,-404.581 510.142,-412.776 2.19095,-1.12795 4.67717,-1.76457 7.31103,-1.76457 8.83583,0 16.0004,7.16457 16.0004,16.0004l0 21.1134 0 0.105118c0,0 -5.6752,12.3225 -6.96851,13.2071l-0.0318898 -0.0200788c-432.855,296 -551.984,722.483 -585.96,844.123 -1.69606,6.0756 -3.17126,11.3516 -4.80237,16.9701 -5.75315,19.8154 -9.33544,45.5115 -9.33544,73.5721 0,40.5107 7.56969,85.1989 27.0248,122.96 18.9047,36.6933 49.2603,66.9969 95.191,80.3316 16.5744,4.81181 35.3929,7.45985 56.6906,7.45985 182.423,0 368.318,-142.825 380.47,-152.312 3.64252,-3.16654 8.6693,-4.65709 13.7599,-3.60118l-3.25158 15.6662 3.2504 -15.6248c0.11811,0.0236221 40.6394,8.71418 154.344,8.71418 410.176,0 548.502,-311.996 578.15,-395.344l-396.462 0c-12.1016,36.267 -58.6548,139.417 -196.839,139.417 -219.712,0 -216.658,-218.343 -216.021,-236.68 -0.00708662,-0.190158 -0.0106299,-0.381496 -0.0106299,-0.572835 0,-8.83583 7.16457,-16.0004 16.0004,-16.0004l806.22 0c26.361,-511.865 -436.122,-618.126 -488.873,-628.055 -175.334,-33.0036 -341.259,-13.7764 -498.299,80.8465l-1.20945 0.728741zm536.273 -105.79c123.186,32.4 517.353,175.081 483.178,669.334l-15.9378 -1.06299 15.9614 1.10315c-0.582284,8.44489 -7.62048,14.902 -15.9614,14.8949l0 0.00236221 -805.346 0c1.90394,47.491 21.2103,189.252 184.027,189.252 141.722,0 169.233,-126.617 169.316,-126.979l15.5622 3.56221 -15.5929 -3.58819c1.72559,-7.50119 8.46615,-12.5445 15.8669,-12.4122l430.107 0c8.83583,0 16.0004,7.16457 16.0004,16.0004 0,1.87795 -0.324803,3.68032 -0.918898,5.35394 -6.49607,22.8343 -131.017,437.991 -615.189,437.991 -89.739,0 -136.53,-5.59016 -153.392,-8.17796 -33.9166,25.5508 -215.033,155.335 -395.181,155.335 -24.1358,0 -45.9307,-3.13583 -65.5654,-8.83701 -55.5402,-16.1256 -92.0776,-52.4386 -114.691,-96.3308 -22.0666,-42.828 -30.6508,-92.7154 -30.6508,-137.584 0,-30.8575 4.11024,-59.7095 10.7126,-82.4469 1.09488,-3.77481 2.76142,-9.73347 4.67717,-16.5945 32.8985,-117.778 144.054,-515.561 533.129,-814.403 -106.355,59.856 -297.508,188.356 -448.811,405.085l0.0543308 0.0377953c-5.05748,7.24489 -15.0331,9.0189 -22.278,3.96142 -4.77874,-3.33544 -7.17638,-8.81103 -6.80434,-14.2311 -0.283465,-22.9087 1.10433,-326.28 274.114,-500.286l-0.0366142 -0.056693c0.37441,-0.238583 0.754725,-0.458268 1.13976,-0.662599 233.364,-140.719 466.454,-97.7741 510.246,-87.9154 98.8938,-70.5308 239.309,-134.23 354.59,-148.101 51.1489,-6.15473 97.8887,-2.57835 134.87,14.3232 38.667,17.6728 66.215,49.2248 76.741,98.3918 11.5559,53.9835 1.85551,129.709 -37.7398,232.455 -3.17481,8.21457 -12.4099,12.3 -20.6244,9.1252 -8.21457,-3.17481 -12.3,-12.4099 -9.1252,-20.6244 37.1611,-96.43 46.5733,-166.058 36.2398,-214.33 -8.17442,-38.1803 -29.2477,-62.5371 -58.741,-76.017 -31.1788,-14.25 -72.1501,-17.0752 -117.872,-11.5736 -101.244,12.1831 -223.186,64.891 -316.073,126.006zm-154.899 267.998c214.773,0 206.325,206.215 206.307,206.806l0.0543308 0.0472441c-0.262205,8.6693 -7.37717,15.5185 -15.9921,15.5138l0 0.00236221 -390.624 0c-8.83583,0 -16.0004,-7.16457 -16.0004,-16.0004 0,-0.424016 0.0165354,-0.84567 0.0496063,-1.26142 0.0106299,-18.3307 5.22284,-205.108 216.206,-205.108zm173.947 190.369c-3.22914,-42.6532 -25.6382,-158.368 -173.947,-158.368 -153.991,0 -179.403,115.463 -183.535,158.368l357.482 0z"/>
  <path class="fil0" d="M785.637 1702.34c-81.2044,25.6512 -149.425,28.5496 -202.546,14.4165 -42.9177,-11.4189 -76.0867,-33.8622 -98.5123,-64.4575 -22.3311,-30.4677 -33.7536,-68.7367 -33.2953,-111.967 0.602363,-57.0142 21.9402,-122.786 66.3036,-190.396l14.537 -22.1528 12.8374 23.2146c0.27874,0.504331 94.4753,175.247 373.843,237.717l-6.87402 31.1244c-232.164,-51.9142 -343.885,-179.792 -380.66,-231.362 -32.087,54.7571 -47.6327,106.874 -48.1111,152.105 -0.383859,36.2362 8.93741,67.9666 27.1701,92.843 18.1382,24.7465 45.3615,43.0052 80.8879,52.4575 47.5111,12.6402 109.649,9.69331 184.794,-14.0433l9.62599 30.5008z"/>
  <path class="fil1" fill="transparent" d="M1662.17 1087.66c26.361,-511.865 -436.122,-618.126 -488.873,-628.055 -175.334,-33.0036 -341.259,-13.7764 -498.299,80.8465l-1.20945 0.728741c-149.121,98.106 -236.723,245.047 -256.491,421.535 215.902,-283.2 491.053,-404.581 510.142,-412.776 2.19095,-1.12795 4.67717,-1.76457 7.31103,-1.76457 8.83583,0 16.0004,7.16457 16.0004,16.0004l0 21.1134 0 0.105118c0,0 -5.6752,12.3225 -6.96851,13.2071l-0.0318898 -0.0200788c-432.855,296 -551.984,722.483 -585.96,844.123 -1.69606,6.0756 -3.17126,11.3516 -4.80237,16.9701 -5.75315,19.8154 -9.33544,45.5115 -9.33544,73.5721 0,40.5107 7.56969,85.1989 27.0248,122.96 18.9047,36.6933 49.2603,66.9969 95.191,80.3316 16.5744,4.81181 35.3929,7.45985 56.6906,7.45985 41.4496,0 83.0776,-7.37363 122.808,-18.8811 -22.6028,-0.462992 -43.3926,-3.33544 -62.2749,-8.35867 -42.9177,-11.4189 -76.0867,-33.8622 -98.5123,-64.4575 -22.3311,-30.4677 -33.7536,-68.7367 -33.2953,-111.967 0.602363,-57.0142 21.9402,-122.786 66.3036,-190.396l14.537 -22.1528 12.8374 23.2146c0.277559,0.501969 93.5599,173.548 369.772,236.796 0.681497,0.0519685 1.36772,0.147638 2.05512,0.290551l-0.0011811 0.0413386c0.11811,0.0236221 40.6394,8.71418 154.344,8.71418 410.176,0 548.502,-311.996 578.15,-395.344l-396.462 0c-12.1016,36.267 -58.6548,139.417 -196.839,139.417 -219.712,0 -216.658,-218.343 -216.021,-236.68l-0.0106299 -0.572835c0,-8.83583 7.16457,-16.0004 16.0004,-16.0004l806.22 0zm-416.639 -161.904l0 0zm-190.369 -222.367c214.773,0 206.325,206.215 206.307,206.806l0.0543308 0.0472441c-0.262205,8.6693 -7.37717,15.5185 -15.9921,15.5162l-390.624 0c-8.83583,0 -16.0004,-7.16457 -16.0004,-16.0004 0,-0.424016 0.0165354,-0.84567 0.0496063,-1.26142 0.0106299,-18.3307 5.22284,-205.108 216.206,-205.108z"/></g><rect class="fil2" fill="757575"/></svg>